<?xml version="1.0" encoding="UTF-8" standalone="no"?>
<!-- Created with Inkscape (http://www.inkscape.org/) -->

<svg
   xmlns:dc="http://purl.org/dc/elements/1.1/"
   xmlns:cc="http://creativecommons.org/ns#"
   xmlns:rdf="http://www.w3.org/1999/02/22-rdf-syntax-ns#"
   xmlns:svg="http://www.w3.org/2000/svg"
   xmlns="http://www.w3.org/2000/svg"
   xmlns:sodipodi="http://sodipodi.sourceforge.net/DTD/sodipodi-0.dtd"
   xmlns:inkscape="http://www.inkscape.org/namespaces/inkscape"
   version="1.1"
   id="svg3713"
   width="220"
   height="220"
   viewBox="0 0 220 220"
   sodipodi:docname="double-helix-icon.svg"
   inkscape:version="0.92.4 (5da689c313, 2019-01-14)"
   inkscape:export-filename="C:\Projects\DNAForceAtlas\images\double-helix-icon-32.png"
   inkscape:export-xdpi="13.96"
   inkscape:export-ydpi="13.96">
  <metadata
     id="metadata3719">
    <rdf:RDF>
      <cc:Work
         rdf:about="">
        <dc:format>image/svg+xml</dc:format>
        <dc:type
           rdf:resource="http://purl.org/dc/dcmitype/StillImage" />
        <dc:title></dc:title>
      </cc:Work>
    </rdf:RDF>
  </metadata>
  <defs
     id="defs3717">
    <clipPath
       clipPathUnits="userSpaceOnUse"
       id="clipPath3734">
      <rect
         id="rect3736"
         width="201.33662"
         height="258.74588"
         x="371.94717"
         y="320.198" />
    </clipPath>
  </defs>
  <sodipodi:namedview
     pagecolor="#ffffff"
     bordercolor="#666666"
     borderopacity="1"
     objecttolerance="10"
     gridtolerance="10"
     guidetolerance="10"
     inkscape:pageopacity="0"
     inkscape:pageshadow="2"
     inkscape:window-width="2400"
     inkscape:window-height="1271"
     id="namedview3715"
     showgrid="false"
     inkscape:zoom="1.749007"
     inkscape:cx="-147.27329"
     inkscape:cy="54.302322"
     inkscape:window-x="4791"
     inkscape:window-y="-9"
     inkscape:window-maximized="1"
     inkscape:current-layer="svg3713"
     fit-margin-top="0"
     fit-margin-left="0"
     fit-margin-right="0"
     fit-margin-bottom="0" />
  <path
     style="fill:#9cbe30;fill-opacity:1;stroke-width:1.33333325"
     d="m 41.724093,219.74304 c -4.33394,-2.52429 -1.68294,-10.55986 3.48378,-10.55986 1.39298,0 4.84956,4.27656 4.84956,6 0,1.89412 -3.53555,6.02934 -5.09524,5.95945 -0.49762,-0.0223 -1.95476,-0.65211 -3.2381,-1.39959 z m 130.417077,-2.29605 c -1.7403,-5.48317 2.55897,-9.44083 7.42609,-6.83603 1.84081,0.98518 2.52381,2.51048 2.23675,4.99523 -0.33884,2.933 -1.17288,3.65068 -4.63262,3.98629 -3.20376,0.3108 -4.41453,-0.20563 -5.03022,-2.14549 z M 54.057433,216.51651 c 0,-1.74603 7.1111,-2 55.999987,-2 48.88891,0 56.00001,0.25397 56.00001,2 0,1.74602 -7.1111,2 -56.00001,2 -48.888887,0 -55.999987,-0.25398 -55.999987,-2 z m -12.46002,-17.77165 c -4.63941,-5.1265 -1.3143,-12.22835 5.72532,-12.22835 4.50202,0 7.06803,2.74709 7.06803,7.56679 0,6.45388 -8.40104,9.515 -12.79335,4.66156 z M 168.7241,198.51651 c -3.20923,-3.20923 -3.33423,-5.12024 -0.59107,-9.03665 3.97486,-5.67491 13.9244,-2.38683 13.9244,4.60165 0,3.42556 -4.02292,7.10167 -7.77165,7.10167 -1.59225,0 -4.09501,-1.2 -5.56168,-2.66667 z M 60.724093,195.18318 c 0,-1.74175 6.37038,-2 49.333327,-2 42.96297,0 49.33335,0.25825 49.33335,2 0,1.74174 -6.37038,2 -49.33335,2 -42.962947,0 -49.333327,-0.25826 -49.333327,-2 z m -7.33333,-18.17408 c -5.76235,-3.2214 -7.7816,-10.0056 -4.69481,-15.77334 3.45292,-6.45184 16.00656,-5.12324 18.70714,1.97986 3.36222,8.84329 -6.13829,18.19542 -14.01233,13.79348 z m 106.040307,-0.19203 c -8.43288,-4.28289 -8.54372,-14.36449 -0.20384,-18.54177 7.56462,-3.78896 14.70395,0.67256 14.7878,9.24121 0.0404,4.12692 -3.69334,9.66667 -6.51521,9.66667 -0.67336,0 -2.02336,0.29393 -3,0.65318 -0.97665,0.35926 -3.25759,-0.0995 -5.06875,-1.01929 z m -86.706977,-8.30056 c 0,-1.73016 5.03704,-2 37.333327,-2 32.29631,0 37.33335,0.26984 37.33335,2 0,1.73016 -5.03704,2 -37.33335,2 -32.296287,0 -37.333327,-0.26984 -37.333327,-2 z m -5.60282,-22.06436 c -3.60052,-3.60053 -3.97882,-4.70216 -3.31476,-9.65304 2.18562,-16.29506 24.91758,-14.08696 24.91758,2.42041 0,2.09299 -1.5682,5.07032 -3.89744,7.39955 -5.44776,5.44777 -12.15392,5.38455 -17.70538,-0.16692 z m 69.500257,0.16692 c -10.17015,-10.17015 1.63369,-26.22854 14.41945,-19.61677 7.98419,4.12877 8.93223,15.68573 1.70868,20.82934 -5.51209,3.92496 -11.43597,3.47959 -16.12813,-1.21257 z m -40.341877,-4.99145 c -2.47302,-2.47303 0.35278,-3.11111 13.777767,-3.11111 12.14815,0 14.66667,0.34344 14.66667,2 0,1.64875 -2.41975,2 -13.77777,2 -7.57779,0 -14.177787,-0.4 -14.666667,-0.88889 z m 4.842507,-16.39047 c -16.031037,-9.77469 -7.353957,-33.785941 11.44374,-31.667171 15.95659,1.79853 20.4724,22.121441 6.94159,31.239841 -5.56825,3.75245 -12.66157,3.91732 -18.38533,0.42733 z M 67.121273,91.785489 c -3.60052,-3.60054 -3.97882,-4.70216 -3.31476,-9.65304 1.66597,-12.4208 17.4306,-15.55994 23.09846,-4.59948 6.68879,12.93468 -9.46445,24.571761 -19.7837,14.25252 z m 69.500257,0.16692 c -7.13028,-7.13027 -3.88783,-18.38095 6.01362,-20.86604 4.8832,-1.22562 11.17847,1.75774 13.60316,6.4466 6.61178,12.78574 -9.44662,24.589581 -19.61678,14.41944 z m -40.594317,-8.15144 c -1.86997,-3.0257 1.59074,-3.95112 14.775567,-3.95112 11.0104,0 13.92131,0.38836 13.92131,1.85734 0,1.02155 -0.75,2.12768 -1.66667,2.4581 -3.31992,1.19664 -26.256537,0.88749 -27.030207,-0.36432 z m -42.63645,-20.15743 c -4.16311,-2.27705 -6,-5.27641 -6,-9.79712 0,-8.73469 10.40585,-13.20755 17.45229,-7.50169 4.56296,3.69486 4.26771,11.49662 -0.5933,15.6779 -4.01174,3.45075 -6.76274,3.86139 -10.85899,1.62091 z m 106.411067,0.19351 c -4.56349,-1.83819 -7.4589,-7.21642 -6.42333,-11.93136 2.52201,-11.48263 20.67893,-10.23594 20.67893,1.41985 0,5.45263 -1.2594,7.75092 -5.42869,9.90696 -4.26421,2.20511 -4.76776,2.23959 -8.82691,0.60455 z m -87.077737,-9.9872 c 0,-1.73016 5.03704,-2 37.333327,-2 32.29631,0 37.33335,0.26984 37.33335,2 0,1.73016 -5.03704,2 -37.33335,2 -32.296287,0 -37.333327,-0.26984 -37.333327,-2 z m -28.9601,-19.36012 c -3.41763,-1.3752 -5.38427,-7.40036 -3.43146,-10.51292 0.73395,-1.16983 2.98476,-2.71475 5.00179,-3.43316 3.19149,-1.13671 4.08185,-0.82431 6.86189,2.40769 3.98836,4.63675 3.98082,5.56679 -0.0781,9.62577 -3.57251,3.57252 -3.99083,3.6683 -8.35404,1.91262 z m 125.566177,-1.91262 c -2.51976,-2.51974 -3.20215,-4.23387 -2.55424,-6.41613 1.88938,-6.36374 8.101,-8.1583 12.61484,-3.64446 4.51384,4.51384 2.71928,10.72545 -3.64447,12.61483 -2.18225,0.64791 -3.89639,-0.0345 -6.41613,-2.55424 z M 60.724093,27.183179 c 0,-1.74174 6.37038,-2 49.333327,-2 42.96297,0 49.33335,0.25826 49.33335,2 0,1.74175 -6.37038,2 -49.33335,2 -42.962947,0 -49.333327,-0.25825 -49.333327,-2 z M 40.838403,9.9875789 c -0.90879,-1.09502 -1.45628,-3.37397 -1.21665,-5.06434 0.34018,-2.39978 1.28053,-3.07339 4.29036,-3.07339 4.75266,0 7.48041,3.57861 5.33566,7 -1.9143,3.0537701 -6.32406,3.6503701 -8.40937,1.13773 z M 172.99077,10.249849 c -3.59375,-3.5937501 -0.79214,-9.0666701 4.64126,-9.0666701 2.13622,0 3.29152,0.99711 3.88223,3.35066 1.44212,5.7458901 -4.50521,9.7342901 -8.52349,5.7160101 z M 54.057433,5.8498489 c 0,-1.74603 7.1111,-2 55.999987,-2 48.88891,0 56.00001,0.25397 56.00001,2 0,1.74603 -7.1111,2 -56.00001,2 -48.888887,0 -55.999987,-0.25397 -55.999987,-2 z"
     id="path3761"
     inkscape:connector-curvature="0"
     sodipodi:nodetypes="cssccscccsssssscsscsssssssssscccccscsccsssssscscscccccsssccsccccccsccscssccssscsscscssssssccccccccssccsssssccsscsscssssss" />
</svg>
